<svg width="19" height="19" viewBox="0 0 19 19" fill="none" xmlns="http://www.w3.org/2000/svg">
<g opacity="0.5">
<path d="M18.8677 3.06331C18.7279 3.36743 18.4877 3.46439 18.1603 3.45514C17.5459 3.43795 16.9306 3.45073 16.3157 3.44985C15.9067 3.44941 15.7066 3.24534 15.7044 2.83236C15.7035 2.69264 15.752 2.50576 15.681 2.42598C15.5977 2.33166 15.4064 2.39822 15.2623 2.39689C14.6964 2.39293 14.13 2.39513 13.5178 2.39513C13.84 2.61771 14.1234 2.81781 14.3821 3.05141C15.7449 4.28111 16.5202 5.80699 16.6904 7.63655C16.7009 7.75114 16.7428 7.80624 16.849 7.85296C17.4542 8.11829 17.8425 8.78383 17.7689 9.41013C17.6825 10.1422 17.1814 10.7117 16.5158 10.8333C15.8181 10.9607 15.1495 10.6513 14.8216 10.0492C14.376 9.23163 14.6907 8.25845 15.536 7.85516C15.6277 7.81153 15.6484 7.76569 15.6387 7.67005C15.5347 6.6215 15.1706 5.67036 14.5549 4.82015C13.7673 3.73237 12.7271 2.99367 11.437 2.60889C11.3189 2.57363 11.2691 2.59788 11.2065 2.70013C10.6023 3.69094 9.14424 3.69535 8.53909 2.70806C8.47254 2.5992 8.41833 2.57319 8.29668 2.61242C6.15815 3.29999 4.81827 4.74434 4.23118 6.90049C4.16243 7.15393 4.12584 7.41573 4.10248 7.67886C4.09499 7.76525 4.11042 7.81021 4.19725 7.85252C4.78829 8.13768 5.11401 8.61678 5.11886 9.26998C5.12371 9.92934 4.80196 10.4168 4.21135 10.717C3.30869 11.1753 2.12087 10.5446 1.99172 9.54104C1.89388 8.7803 2.23282 8.15223 2.9173 7.84458C3.01515 7.80051 3.04071 7.74101 3.04953 7.6458C3.20864 5.88148 3.94117 4.39394 5.21759 3.17173C5.51157 2.89009 5.83684 2.64548 6.22338 2.3916C5.9391 2.3916 5.70814 2.3916 5.47719 2.3916C5.04393 2.3916 4.61023 2.39601 4.17697 2.38852C4.06017 2.38631 4.02623 2.42025 4.03461 2.53397C4.04431 2.66223 4.0399 2.79181 4.03549 2.92051C4.02491 3.22198 3.81291 3.445 3.5132 3.44765C2.81064 3.45382 2.10764 3.45337 1.40508 3.44809C1.09612 3.44588 0.877945 3.22286 0.875742 2.91081C0.870893 2.21927 0.873979 1.52817 0.874419 0.837072C0.874419 0.546176 1.04058 0.381776 1.29578 0.286133C2.06886 0.286133 2.84194 0.286133 3.61545 0.286133C3.9253 0.394998 4.06194 0.614493 4.03814 0.940649C4.03152 1.03365 4.04431 1.12841 4.03505 1.22097C4.02447 1.32587 4.06943 1.34306 4.16331 1.34261C5.53096 1.33997 6.89817 1.33909 8.26583 1.34394C8.37205 1.34438 8.40158 1.29413 8.4364 1.21524C8.58669 0.877181 8.83219 0.62463 9.16099 0.460671C9.3082 0.387506 9.46952 0.343431 9.62466 0.286574C9.77716 0.286574 9.92922 0.286574 10.0817 0.286574C10.0888 0.314341 10.1104 0.315663 10.1342 0.31963C10.6697 0.406899 11.0536 0.703525 11.2859 1.18615C11.3476 1.31397 11.4146 1.34482 11.5459 1.34394C12.7963 1.33909 14.0472 1.34085 15.2976 1.34085C15.704 1.34085 15.7145 1.34041 15.7013 0.940649C15.6907 0.614493 15.8163 0.394998 16.1262 0.286133C16.8993 0.286133 17.6723 0.286133 18.4459 0.286133C18.6543 0.358857 18.7949 0.499457 18.8677 0.707932C18.8677 1.49335 18.8677 2.27833 18.8677 3.06331ZM1.93663 1.85124C1.93663 2.02622 1.86787 2.26202 1.9547 2.35987C2.05475 2.47226 2.29452 2.38984 2.47391 2.39425C2.63699 2.39866 2.8556 2.45331 2.9486 2.37133C3.05658 2.27657 2.9768 2.05311 2.98121 1.88562C2.98606 1.71108 3.04512 1.47528 2.95697 1.37699C2.85604 1.2646 2.61671 1.34746 2.43777 1.34261C2.27469 1.33821 2.05607 1.28355 1.96308 1.36597C1.85509 1.4603 1.94324 1.6842 1.93663 1.85124ZM17.2946 1.34085C17.1483 1.34085 17.002 1.34482 16.8556 1.33909C16.7781 1.336 16.7565 1.36157 16.7573 1.43782C16.7613 1.72475 16.7618 2.01168 16.7573 2.29861C16.756 2.37618 16.7798 2.39777 16.8561 2.39689C17.143 2.39293 17.4299 2.39249 17.7164 2.39689C17.794 2.39822 17.8156 2.37441 17.8147 2.29816C17.8107 2.01124 17.8103 1.72431 17.8147 1.43738C17.816 1.3598 17.7927 1.336 17.716 1.33909C17.5758 1.34482 17.4352 1.34085 17.2946 1.34085ZM9.86796 2.39469C10.1536 2.39645 10.3933 2.16109 10.3973 1.87548C10.4013 1.59032 10.1681 1.3479 9.88294 1.34129C9.59073 1.33468 9.34391 1.57665 9.34479 1.86931C9.34523 2.15492 9.58235 2.39293 9.86796 2.39469ZM4.07119 9.28099C4.06811 8.99539 3.82966 8.75914 3.54405 8.75958C3.25845 8.76003 3.02044 8.99715 3.01868 9.28276C3.01691 9.57542 3.26241 9.81827 3.55463 9.81298C3.8398 9.80725 4.07428 9.56616 4.07119 9.28099ZM16.2051 9.81254C16.4907 9.80813 16.7256 9.56792 16.7234 9.28232C16.7212 8.99671 16.4832 8.76003 16.1976 8.75958C15.9054 8.75914 15.6638 9.00641 15.6705 9.29862C15.6771 9.58379 15.9199 9.81695 16.2051 9.81254Z" fill="#1D1D1B" stroke="#1D1D1B" stroke-width="0.1"/>
<path d="M9.86792 18.2869C8.8489 18.2869 7.82988 18.2873 6.81086 18.2869C6.37055 18.2869 6.16163 18.0749 6.18588 17.6355C6.22598 16.9007 6.51512 16.2784 7.06121 15.7834C7.15641 15.697 7.18021 15.6168 7.16038 15.4952C6.93648 14.1108 6.34984 12.9062 5.38767 11.8841C5.05755 11.5333 5.04565 11.3565 5.31231 10.9568C6.66145 8.93239 8.01059 6.90801 9.36017 4.88408C9.66914 4.42085 10.0742 4.42305 10.3849 4.88893C11.7341 6.9133 13.0836 8.93723 14.4328 10.9616C14.6928 11.3521 14.6818 11.5359 14.3614 11.8757C13.3983 12.8965 12.8091 14.0993 12.5829 15.4837C12.5609 15.6199 12.5957 15.7054 12.698 15.7993C13.2357 16.2934 13.5182 16.9131 13.5566 17.6412C13.579 18.0705 13.3692 18.286 12.9426 18.286C11.9174 18.2869 10.8927 18.2869 9.86792 18.2869ZM9.34386 6.81678C9.30375 6.87319 9.28833 6.89391 9.27378 6.91507C8.31338 8.35544 7.35431 9.7967 6.39083 11.2353C6.33353 11.3208 6.34543 11.3684 6.40801 11.4411C7.30715 12.4879 7.8885 13.6899 8.14722 15.0456C8.16661 15.1461 8.20364 15.1725 8.29884 15.147C8.48704 15.0963 8.68009 15.0875 8.87358 15.0875C9.54132 15.087 10.2091 15.087 10.8768 15.0875C11.0646 15.0875 11.2523 15.0959 11.4343 15.1448C11.5379 15.1725 11.5754 15.1461 11.5965 15.0372C11.8553 13.6943 12.4274 12.5003 13.3186 11.4623C13.4049 11.3618 13.3953 11.3019 13.3265 11.1992C12.3824 9.79009 11.4436 8.37748 10.5026 6.96619C10.4766 6.92697 10.4607 6.87452 10.3986 6.85468C10.3986 7.84197 10.4003 8.81999 10.3959 9.79846C10.3955 9.89587 10.4413 9.92408 10.5158 9.95801C11.3026 10.3159 11.6574 11.2124 11.3294 12.0044C11.0725 12.6254 10.3832 13.0442 9.7445 12.9679C9.00448 12.8793 8.42578 12.3614 8.3222 11.6941C8.20584 10.9462 8.55139 10.2595 9.20326 9.97036C9.32138 9.91791 9.34695 9.85444 9.34651 9.7372C9.3421 8.82925 9.3443 7.92086 9.3443 7.01291C9.34386 6.96223 9.34386 6.91154 9.34386 6.81678ZM7.34637 17.2242C9.03005 17.2242 10.712 17.2242 12.3956 17.2242C12.2242 16.6394 11.6463 16.1709 11.0125 16.1523C10.2518 16.1299 9.48975 16.1299 8.72901 16.1523C8.09565 16.1709 7.51783 16.6394 7.34637 17.2242ZM10.3973 11.4028C10.4008 11.1176 10.1672 10.8757 9.88202 10.8695C9.59685 10.8638 9.35312 11.0956 9.34474 11.3808C9.33637 11.673 9.57658 11.9216 9.8688 11.9224C10.154 11.9238 10.3937 11.688 10.3973 11.4028Z" fill="#1D1D1B" stroke="#1D1D1B" stroke-width="0.1"/>
</g>
</svg>
