<svg width="18" height="14" viewBox="0 0 18 14" fill="none" xmlns="http://www.w3.org/2000/svg">
<g opacity="0.6">
<path d="M8.84783 13.6145C6.53784 13.6145 5.22785 13.6172 2.91787 13.6134C1.67407 13.6112 0.70874 12.7939 0.494405 11.5704C0.468641 11.4235 0.466997 11.2705 0.466997 11.1203C0.465352 8.2512 0.463708 5.38262 0.465901 2.5135C0.466997 1.07455 1.51016 0.0330316 2.95076 0.0324834C7.56416 0.0308389 10.177 0.0308389 14.7904 0.0324834C16.231 0.0330316 17.2709 1.07236 17.2725 2.51515C17.2753 5.38427 17.2753 8.25284 17.2725 11.122C17.2714 12.5768 16.2332 13.6123 14.7783 13.6134C12.4678 13.6156 11.1578 13.6145 8.84783 13.6145ZM15.9284 3.6537C15.873 3.68439 15.8144 3.71509 15.7579 3.74908C13.6513 5.01151 12.5441 6.27231 10.4392 7.53748C9.40094 8.16185 8.3627 8.16952 7.32282 7.55119C5.20579 6.29259 4.09095 5.0307 1.97446 3.77155C1.9191 3.73866 1.87196 3.68056 1.77822 3.6959C1.77822 3.74853 1.77822 3.80115 1.77822 3.85433C1.77822 6.27833 1.77712 8.70234 1.77877 11.1264C1.77932 11.8571 2.22279 12.2983 2.95569 12.2983C7.56251 12.2994 10.1693 12.2989 14.7756 12.2983C14.8984 12.2983 15.0206 12.2994 15.1418 12.2665C15.651 12.1268 15.958 11.7178 15.9586 11.1527C15.9608 8.70125 15.9597 6.24983 15.9586 3.79841C15.9591 3.75401 15.9772 3.70413 15.9284 3.6537ZM8.87853 1.34754C7.42972 1.34754 5.9809 1.34754 4.53154 1.34754C3.65666 1.34754 3.78178 1.34864 2.9069 1.34754C2.42945 1.347 2.08848 1.56352 1.87196 1.98726C1.80672 2.11498 1.80892 2.19063 1.95747 2.27834C4.32447 3.67562 5.68654 5.08278 8.05079 6.48499C8.56388 6.78923 9.09067 6.80403 9.60486 6.4998C12.0064 5.07949 13.4035 3.65205 15.8045 2.23174C15.9147 2.16651 15.9229 2.1095 15.8725 2.0048C15.651 1.55037 15.2887 1.34535 14.7877 1.34645C12.4848 1.34974 11.1819 1.34754 8.87853 1.34754Z" fill="#1D1D1B"/>
</g>
</svg>
