<svg width="31" height="30" viewBox="0 0 31 30" fill="none" xmlns="http://www.w3.org/2000/svg">
<path d="M24.9859 7.51515C24.9859 6.54741 24.2016 5.766 23.2375 5.766C22.2733 5.766 21.4883 6.54741 21.4883 7.51515C21.4883 8.47934 22.2733 9.26074 23.2375 9.26074C24.2016 9.26074 24.9859 8.47934 24.9859 7.51515Z" fill="#1D1D1B"/>
<path d="M27.315 21.1689C27.2502 22.5886 27.0128 23.3599 26.8157 23.8722C26.5509 24.5514 26.235 25.0371 25.7227 25.5465C25.2162 26.0559 24.7305 26.3711 24.0512 26.633C23.5389 26.833 22.7647 27.0712 21.3451 27.1388C19.8104 27.2065 19.3556 27.2209 15.4637 27.2209C11.5754 27.2209 11.117 27.2065 9.58228 27.1388C8.16269 27.0712 7.39208 26.833 6.87974 26.633C6.19693 26.3711 5.71486 26.0559 5.20544 25.5465C4.6924 25.0371 4.37654 24.5514 4.11536 23.8722C3.91817 23.3599 3.67716 22.5886 3.61597 21.1689C3.54117 19.6342 3.52747 19.1722 3.52747 15.2882C3.52747 11.3963 3.54117 10.938 3.61597 9.4032C3.67716 7.98361 3.91817 7.213 4.11536 6.69634C4.37654 6.01785 4.6924 5.53503 5.20544 5.0256C5.71486 4.51694 6.19693 4.20103 6.87974 3.93628C7.39208 3.73553 8.16269 3.50095 9.58228 3.43333C11.117 3.36566 11.5754 3.34839 15.4637 3.34839C19.3556 3.34839 19.8104 3.36566 21.3451 3.43333C22.7647 3.50095 23.5389 3.73553 24.0512 3.93628C24.7305 4.20103 25.2162 4.51694 25.7227 5.0256C26.235 5.53503 26.5509 6.01785 26.8157 6.69634C27.0128 7.213 27.2502 7.98361 27.315 9.4032C27.3862 10.938 27.4035 11.3963 27.4035 15.2882C27.4035 19.1722 27.3862 19.6342 27.315 21.1689ZM29.9363 9.28378C29.865 7.73246 29.6204 6.6726 29.257 5.74949C28.8872 4.79178 28.3914 3.98015 27.5798 3.16853C26.7718 2.36052 25.9602 1.86474 25.0025 1.49061C24.0757 1.13083 23.0194 0.883291 21.4674 0.815674C19.9154 0.740826 19.4197 0.727171 15.4637 0.727171C11.5113 0.727171 11.012 0.740826 9.46 0.815674C7.91154 0.883291 6.856 1.13083 5.92495 1.49061C4.97085 1.86474 4.15923 2.36052 3.35122 3.16853C2.53959 3.98015 2.04382 4.79178 1.67039 5.74949C1.31061 6.6726 1.06598 7.73246 0.991136 9.28378C0.923519 10.8358 0.90625 11.3323 0.90625 15.2882C0.90625 19.2406 0.923519 19.7363 0.991136 21.2883C1.06598 22.8368 1.31061 23.8959 1.67039 24.8234C2.04382 25.7775 2.53959 26.5927 3.35122 27.4007C4.15923 28.2087 4.97085 28.7081 5.92495 29.0816C6.856 29.4413 7.91154 29.686 9.46 29.7572C11.012 29.8284 11.5113 29.8457 15.4637 29.8457C19.4197 29.8457 19.9154 29.8284 21.4674 29.7572C23.0194 29.686 24.0757 29.4413 25.0025 29.0816C25.9602 28.7081 26.7718 28.2087 27.5798 27.4007C28.3914 26.5927 28.8872 25.7775 29.257 24.8234C29.6204 23.8959 29.865 22.8368 29.9363 21.2883C30.0075 19.7363 30.0248 19.2406 30.0248 15.2882C30.0248 11.3323 30.0075 10.8358 29.9363 9.28378Z" fill="#1D1D1B"/>
<path d="M15.4639 20.1379C12.7851 20.1379 10.6115 17.9677 10.6115 15.2889C10.6115 12.6058 12.7851 10.4329 15.4639 10.4329C18.1435 10.4329 20.32 12.6058 20.32 15.2889C20.32 17.9677 18.1435 20.1379 15.4639 20.1379ZM15.4639 7.80806C11.3346 7.80806 7.99023 11.1596 7.99023 15.2889C7.99023 19.4147 11.3346 22.7627 15.4639 22.7627C19.5933 22.7627 22.9413 19.4147 22.9413 15.2889C22.9413 11.1596 19.5933 7.80806 15.4639 7.80806Z" fill="#1D1D1B"/>
</svg>
