<svg width="145" height="145" viewBox="0 0 145 145" fill="none" xmlns="http://www.w3.org/2000/svg">
<path d="M114.758 96.1955C115.554 96.9906 116.503 97.6157 117.548 98.0329C118.593 98.45 119.712 98.6506 120.836 98.6223C121.961 98.5941 123.068 98.3376 124.09 97.8685C125.113 97.3994 126.029 96.7274 126.784 95.8934V95.8934C128.201 94.3286 128.968 92.2831 128.931 90.1727C128.893 88.0623 128.053 86.0455 126.582 84.532L96.3253 53.499" stroke="white" stroke-width="4" stroke-miterlimit="10"/>
<path d="M84.5652 114.444L88.4741 118.353C89.2664 119.145 89.8949 120.086 90.3237 121.121C90.7525 122.156 90.9732 123.266 90.9732 124.386C90.9732 125.506 90.7525 126.616 90.3237 127.651C89.8949 128.686 89.2664 129.626 88.4741 130.419V130.419C87.3999 131.496 86.0562 132.264 84.5833 132.645" stroke="white" stroke-width="4" stroke-miterlimit="10" stroke-linecap="square"/>
<path d="M108.783 90.2207L117.112 98.5522C117.91 99.3497 118.543 100.297 118.975 101.339C119.407 102.381 119.629 103.499 119.629 104.627C119.629 105.755 119.407 106.873 118.975 107.915C118.543 108.957 117.91 109.904 117.112 110.702C116.314 111.5 115.367 112.133 114.325 112.565C113.282 112.997 112.165 113.219 111.037 113.219C109.908 113.219 108.791 112.997 107.749 112.565C106.706 112.133 105.759 111.5 104.962 110.702L96.6365 102.374" stroke="white" stroke-width="4" stroke-miterlimit="10" stroke-linecap="square"/>
<path d="M103.313 109.052C104.105 109.844 104.733 110.784 105.162 111.819C105.591 112.855 105.812 113.964 105.812 115.084C105.812 116.205 105.591 117.314 105.162 118.349C104.733 119.384 104.105 120.325 103.313 121.117V121.117C101.712 122.716 99.5421 123.613 97.2799 123.613C95.0177 123.613 92.848 122.716 91.2473 121.117" stroke="white" stroke-width="4" stroke-miterlimit="10" stroke-linecap="square"/>
<path d="M29.3353 94.3463L27.0818 96.5999C23.7267 99.955 23.7267 105.395 27.0818 108.75C30.4369 112.105 35.8765 112.105 39.2316 108.75L41.4852 106.496C44.8403 103.141 44.8403 97.7014 41.4852 94.3463C38.1301 90.9913 32.6904 90.9912 29.3353 94.3463Z" stroke="white" stroke-width="4" stroke-miterlimit="10" stroke-linecap="square"/>
<path d="M54.9138 117.201L53.7624 118.353C50.4309 121.684 50.4309 127.085 53.7624 130.417C57.0939 133.748 62.4954 133.748 65.8269 130.417L66.9782 129.266C70.3097 125.934 70.3097 120.533 66.9782 117.201C63.6467 113.87 58.2453 113.87 54.9138 117.201Z" stroke="white" stroke-width="4" stroke-miterlimit="10" stroke-linecap="square"/>
<path d="M29.3021 94.3803L28.0334 95.6491C27.2375 96.4442 26.2884 97.0693 25.2437 97.4864C24.1989 97.9036 23.0803 98.1041 21.9557 98.0759C20.831 98.0477 19.7239 97.7912 18.7014 97.3221C17.6789 96.853 16.7624 96.181 16.0074 95.347V95.347C14.5891 93.7822 13.82 91.736 13.8565 89.6244C13.8929 87.5128 14.7323 85.4944 16.2038 83.9796L17.4725 82.6806C19.0032 81.1163 21.0886 80.2182 23.2769 80.1809C25.4652 80.1436 27.58 80.9701 29.1632 82.4813C29.9654 83.2466 30.6065 84.1646 31.0488 85.1813C31.491 86.198 31.7255 87.2929 31.7385 88.4015C31.7514 89.5102 31.5426 90.6102 31.1242 91.637C30.7058 92.6637 30.0863 93.5965 29.3021 94.3803V94.3803Z" stroke="white" stroke-width="4" stroke-miterlimit="10" stroke-linecap="square"/>
<path d="M126.875 66.4584V56.2631L135.938 47.0435L104.394 15.5L98.7511 21.1459H84.5834C77.532 21.1444 70.7643 23.9231 65.7485 28.8793L45.6146 49.8167C44.339 51.1401 43.5982 52.8888 43.5349 54.7259C43.4717 56.563 44.0904 58.3585 45.2719 59.7666C46.4535 61.1747 48.1143 62.0958 49.9345 62.3525C51.7546 62.6092 53.6054 62.1833 55.1303 61.1569L76.5782 47.3366C78.4289 49.4359 80.7101 51.1119 83.2667 52.2505C85.8232 53.3892 88.595 53.9637 91.3935 53.935C94.192 53.9064 96.9515 53.2752 99.4841 52.0844C102.017 50.8937 104.263 49.1713 106.071 47.0345" stroke="white" stroke-width="4" stroke-miterlimit="10" stroke-linecap="square"/>
<path d="M18.125 66.4584V56.2631L9.0625 47.0435L40.606 15.5L46.249 21.1459H57.3958" stroke="white" stroke-width="4" stroke-miterlimit="10" stroke-linecap="square"/>
<path d="M41.5338 106.453L40.8951 107.092C37.5636 110.423 37.5636 115.825 40.8951 119.156C44.2266 122.488 49.628 122.488 52.9595 119.156L53.5982 118.518C56.9297 115.186 56.9297 109.785 53.5982 106.453C50.2667 103.122 44.8653 103.122 41.5338 106.453Z" stroke="white" stroke-width="4" stroke-miterlimit="10" stroke-linecap="square"/>
</svg>
