<svg width="30" height="30" viewBox="0 0 30 30" fill="none" xmlns="http://www.w3.org/2000/svg">
<path fill-rule="evenodd" clip-rule="evenodd" d="M23.7948 29.6456H29.751L29.7535 19.123C29.7535 13.9573 28.6404 9.98646 22.6036 9.98646C21.4709 9.94442 20.348 10.2104 19.3545 10.756C18.3611 11.3016 17.5342 12.1065 16.9619 13.0849H16.8819V10.4636H11.164V29.645H17.1202V20.156C17.1202 17.6538 17.5948 15.2304 20.697 15.2304C23.7551 15.2304 23.7948 18.0937 23.7948 20.318V29.6456ZM2.52299 7.25944C3.09147 7.63914 3.75978 7.84173 4.4434 7.84161C4.89731 7.84153 5.34675 7.75205 5.76608 7.57827C6.1854 7.40449 6.56639 7.14982 6.8873 6.8288C7.2082 6.50778 7.46273 6.1267 7.63636 5.70732C7.80999 5.28793 7.89931 4.83845 7.89923 4.38454C7.89911 3.70092 7.69627 3.03269 7.31637 2.46435C6.93647 1.896 6.39656 1.45308 5.76493 1.19158C5.1333 0.930084 4.43831 0.86176 3.76785 0.995248C3.09739 1.12874 2.48157 1.45804 1.99826 1.94152C1.51496 2.425 1.18587 3.04094 1.05262 3.71145C0.919376 4.38196 0.98795 5.07693 1.24967 5.70846C1.5114 6.34 1.95452 6.87974 2.52299 7.25944ZM1.4591 29.6456H7.42149V10.4636H1.4591V29.6456Z" fill="#1D1D1B"/>
</svg>
