<svg width="16" height="19" viewBox="0 0 16 19" fill="none" xmlns="http://www.w3.org/2000/svg">
<g opacity="0.6">
<path d="M8.53517 0.362514C11.0182 0.518545 13.3516 1.99234 14.5434 4.95944C15.6041 7.60047 15.108 10.079 13.3036 12.2849C12.9741 12.6875 12.5705 13.0136 12.1814 13.3546C10.6736 14.6789 9.43135 16.2187 8.44915 17.9686C8.32012 18.1981 8.15659 18.3576 7.88354 18.3606C7.61048 18.3636 7.43895 18.2111 7.31042 17.9806C6.2202 16.0182 4.77341 14.3583 3.06807 12.9025C1.76031 11.7858 0.98365 10.341 0.731599 8.63868C0.393031 6.34722 1.02266 4.33631 2.57847 2.62297C3.88623 1.18318 5.92564 0.311003 8.53517 0.362514ZM1.89233 7.56846C1.89233 8.04406 1.94634 8.51365 2.05937 8.97524C2.38493 10.303 3.09607 11.3812 4.13928 12.2604C5.56407 13.4611 6.77281 14.8569 7.78302 16.4227C7.85903 16.5408 7.89104 16.5558 7.97355 16.4277C8.16259 16.1347 8.36163 15.8481 8.56567 15.5656C9.53487 14.2243 10.7161 13.0866 11.9283 11.9668C13.5637 10.4565 14.1733 8.54566 13.7317 6.36772C13.0936 3.22309 10.157 1.20668 6.98736 1.66628C4.07927 2.08786 1.89383 4.61987 1.89233 7.56846Z" fill="#1D1D1B" stroke="#1D1D1B" stroke-width="0.1"/>
<path d="M7.88533 4.5918C9.51415 4.5888 10.8659 5.93107 10.8729 7.5589C10.8799 9.21873 9.54416 10.576 7.90183 10.578C6.231 10.58 4.88973 9.24824 4.88673 7.5834C4.88322 5.93507 6.22649 4.5948 7.88533 4.5918ZM7.88083 9.38126C8.87753 9.37776 9.67869 8.5686 9.67519 7.5694C9.67169 6.5872 8.85602 5.78354 7.86882 5.78904C6.88113 5.79504 6.08197 6.60171 6.08397 7.5909C6.08547 8.5771 6.89613 9.38477 7.88083 9.38126Z" fill="#1D1D1B" stroke="#1D1D1B" stroke-width="0.1"/>
</g>
</svg>
