<svg width="265" height="202" viewBox="0 0 265 202" fill="none" xmlns="http://www.w3.org/2000/svg">
<path opacity="0.05" d="M21.123 150C21.123 164.667 25.7897 177 35.123 187C43.7897 197 56.4564 202 73.123 202C108.456 202 126.123 184.333 126.123 149C126.123 131 121.456 113.333 112.123 96C102.123 78 90.7897 62 78.123 48C65.4564 33.3334 53.123 21.6667 41.123 13C28.4564 4.33334 19.4564 0 14.123 0C4.7897 0 0.123016 4.33334 0.123016 13C0.123016 17.6667 1.78967 22.6667 5.12302 28.0001C8.45636 33.3334 12.123 39.6667 16.123 47C20.123 53.6667 23.7897 61.6667 27.123 71C30.4564 79.6667 32.123 90.0001 32.123 102C32.123 111.333 30.4564 119 27.123 125C23.123 131 21.123 139.333 21.123 150ZM158.123 150C158.123 164.667 162.79 177 172.123 187C181.456 197 194.456 202 211.123 202C246.456 202 264.123 184.333 264.123 149C264.123 131 259.456 113.333 250.123 96C240.123 78 228.79 62 216.123 48C202.79 33.3334 190.123 21.6667 178.123 13C165.456 4.33334 156.456 0 151.123 0C141.79 0 137.123 4.33334 137.123 13C137.123 17.6667 138.79 22.6667 142.123 28.0001C145.456 33.3334 149.123 39.6667 153.123 47C157.123 53.6667 160.79 61.6667 164.123 71C167.456 79.6667 169.123 90.0001 169.123 102C169.123 111.333 167.456 119 164.123 125C160.123 131 158.123 139.333 158.123 150Z" fill="#1D1D1B"/>
</svg>
