<svg width="265" height="203" viewBox="0 0 265 203" fill="none" xmlns="http://www.w3.org/2000/svg">
<path opacity="0.05" d="M243.123 150.242C243.123 164.909 238.456 177.242 229.123 187.242C220.456 197.242 207.79 202.242 191.123 202.242C155.79 202.242 138.123 184.576 138.123 149.242C138.123 131.242 142.79 113.576 152.123 96.2422C162.123 78.2422 173.456 62.2422 186.123 48.2422C198.79 33.5756 211.123 21.9089 223.123 13.2422C235.79 4.57552 244.79 0.242188 250.123 0.242188C259.456 0.242188 264.123 4.57552 264.123 13.2422C264.123 17.9089 262.456 22.9089 259.123 28.2422C255.79 33.5756 252.123 39.9089 248.123 47.2422C244.123 53.9089 240.456 61.9089 237.123 71.2422C233.79 79.9089 232.123 90.2422 232.123 102.242C232.123 111.576 233.79 119.242 237.123 125.242C241.123 131.242 243.123 139.576 243.123 150.242ZM106.123 150.242C106.123 164.909 101.456 177.242 92.1231 187.242C82.7897 197.242 69.7897 202.242 53.123 202.242C17.7897 202.242 0.123047 184.576 0.123047 149.242C0.123047 131.242 4.78971 113.576 14.123 96.2422C24.123 78.2422 35.4564 62.2422 48.1231 48.2422C61.4564 33.5756 74.123 21.9089 86.123 13.2422C98.7897 4.57552 107.79 0.242188 113.123 0.242188C122.456 0.242188 127.123 4.57552 127.123 13.2422C127.123 17.9089 125.456 22.9089 122.123 28.2422C118.79 33.5756 115.123 39.9089 111.123 47.2422C107.123 53.9089 103.456 61.9089 100.123 71.2422C96.7897 79.9089 95.1231 90.2422 95.1231 102.242C95.1231 111.576 96.7897 119.242 100.123 125.242C104.123 131.242 106.123 139.576 106.123 150.242Z" fill="#1D1D1B"/>
</svg>
