<svg width="377" height="122" viewBox="0 0 377 122" fill="none" xmlns="http://www.w3.org/2000/svg">
<path d="M76.9755 51.8984H60.4258V107.097H76.9755C93.9702 107.097 106.786 95.2268 106.786 79.4976C106.786 63.7684 93.9702 51.8984 76.9755 51.8984ZM76.9755 101.123H66.246V57.8716H76.9755C90.7855 57.8716 100.813 66.967 100.813 79.4976C100.813 92.0281 90.7855 101.123 76.9755 101.123Z" fill="white"/>
<path d="M131.841 66.376C120.353 66.376 112.016 75.0959 112.016 87.1188C112.016 99.1417 120.291 107.855 131.688 107.855C140.727 107.855 147.959 102.466 150.636 93.7873L151.005 92.5844H144.747L144.524 93.2102C143.626 95.8874 141.896 98.208 139.587 99.834C137.279 101.46 134.511 102.306 131.688 102.25C124.386 102.25 119.081 97.1321 118.225 89.3996H151.179L151.283 88.586C151.369 87.8937 151.42 87.1974 151.436 86.4999C151.436 74.8386 143.231 66.376 131.841 66.376ZM131.841 71.8902C139.309 71.8902 144.802 77.1541 145.484 84.8171H118.197C119.074 76.9247 124.331 71.8902 131.841 71.8902Z" fill="white"/>
<path d="M173.5 84.4068C167.074 82.877 163.173 81.6254 163.173 77.5923C163.173 74.3657 167.026 71.7372 171.768 71.7372C177.679 71.7372 181.434 74.6925 181.816 79.6436L181.879 80.4989H187.789L187.706 79.4976C187.011 71.4035 180.968 66.376 171.845 66.376C163.5 66.376 157.2 71.1949 157.2 77.5923C157.2 85.9367 164.773 87.7376 171.462 89.3509C177.06 90.6999 181.893 91.8612 181.893 96.2559C181.893 99.3572 178.972 102.514 173.374 102.514C168.507 102.514 162.603 101.242 161.88 95.1781L161.783 94.3575H155.879L155.99 95.3936C156.859 103.328 163.222 107.875 173.451 107.875C181.795 107.875 187.866 103.008 187.866 96.3532C187.859 87.8072 180.231 85.9992 173.5 84.4068Z" fill="white"/>
<path d="M199.507 51.1334C198.983 51.1142 198.46 51.2045 197.973 51.3986C197.486 51.5928 197.045 51.8864 196.678 52.2608C196.311 52.6351 196.026 53.082 195.841 53.5727C195.656 54.0635 195.576 54.5874 195.606 55.1109C195.582 55.6329 195.667 56.154 195.854 56.642C196.041 57.1299 196.326 57.5741 196.692 57.9472C197.058 58.3202 197.496 58.614 197.981 58.8103C198.465 59.0066 198.984 59.1013 199.507 59.0884C200.029 59.1013 200.548 59.0066 201.032 58.8103C201.517 58.614 201.955 58.3202 202.321 57.9472C202.687 57.5741 202.972 57.1299 203.159 56.642C203.346 56.154 203.431 55.6329 203.408 55.1109C203.437 54.5874 203.357 54.0635 203.172 53.5727C202.988 53.082 202.703 52.6351 202.335 52.2608C201.968 51.8864 201.527 51.5928 201.04 51.3986C200.553 51.2045 200.031 51.1142 199.507 51.1334Z" fill="white"/>
<path d="M202.497 67.1338H196.523V107.097H202.497V67.1338Z" fill="white"/>
<path d="M236.008 108.814H223.053C221.21 108.814 218.116 108.258 218.116 104.489C218.155 103.612 218.4 102.757 218.833 101.993C219.266 101.229 219.873 100.578 220.605 100.094C223.59 101.831 226.992 102.723 230.445 102.674C240.917 102.674 248.524 95.0251 248.524 84.525C248.524 74.025 240.924 66.376 230.445 66.376C219.757 66.376 212.296 73.8372 212.296 84.525C212.184 88.9572 213.7 93.2765 216.558 96.6662C215.202 97.6348 214.094 98.9112 213.327 100.391C212.559 101.87 212.153 103.511 212.143 105.177C212.143 110.838 216.315 114.641 222.573 114.641H235.604C239.679 114.641 242.461 116.908 242.558 120.281V121.192H248.538V120.239C248.35 113.299 243.441 108.814 236.008 108.814ZM230.445 71.8902C237.343 71.8902 242.544 77.321 242.544 84.525C242.544 91.729 237.454 97.0834 230.445 97.0834C223.227 97.0834 218.192 91.9168 218.192 84.525C218.192 77.1333 223.199 71.8902 230.445 71.8902Z" fill="white"/>
<path d="M273.417 66.376C263.112 66.376 255.338 75.2906 255.338 87.1188V107.097H261.235V87.1188C261.235 78.5588 266.359 72.3492 273.41 72.3492C280.462 72.3492 285.44 78.5588 285.44 87.1188V107.097H291.414V87.1188C291.42 75.2906 283.695 66.376 273.417 66.376Z" fill="white"/>
<path d="M300.461 107.097H306.281V82.4043H334.555V76.5841H306.281V57.7188H335.389V51.8916H300.461V107.097Z" fill="white"/>
<path d="M349.713 67.1338H343.74V107.097H349.713V67.1338Z" fill="white"/>
<path d="M346.723 51.1334C346.199 51.1142 345.677 51.2045 345.19 51.3986C344.703 51.5928 344.262 51.8864 343.894 52.2608C343.527 52.6351 343.242 53.082 343.058 53.5727C342.873 54.0635 342.793 54.5874 342.822 55.1109C342.799 55.6329 342.884 56.154 343.071 56.642C343.258 57.1299 343.543 57.5741 343.909 57.9472C344.275 58.3202 344.713 58.614 345.197 58.8103C345.682 59.0066 346.201 59.1013 346.723 59.0884C347.246 59.1013 347.765 59.0066 348.249 58.8103C348.733 58.614 349.172 58.3202 349.538 57.9472C349.904 57.5741 350.189 57.1299 350.376 56.642C350.563 56.154 350.647 55.6329 350.624 55.1109C350.654 54.5874 350.573 54.0635 350.389 53.5727C350.204 53.082 349.919 52.6351 349.552 52.2608C349.185 51.8864 348.744 51.5928 348.257 51.3986C347.77 51.2045 347.247 51.1142 346.723 51.1334Z" fill="white"/>
<path d="M376.763 73.1069V67.1337H364.497V58.1426H358.523V90.957C358.523 101.881 364.67 107.889 375.831 107.889H376.763V102.069H375.831C368.099 102.069 364.497 98.5365 364.497 90.943V73.1069H376.763Z" fill="white"/>
<path d="M0.24946 61.2509L35.0317 81.3192V69.7065L10.3323 55.4376L10.228 55.375L0.166016 61.1883L0.24946 61.2509Z" fill="#EDEDED"/>
<path d="M35.032 81.3193V69.7066L34.9764 69.6719L32.6816 68.3438L35.032 81.3193Z" fill="#EDEDED"/>
<path d="M24.9628 18.2356L35.0317 12.4153V0.802734L34.9483 0.865294L24.8655 6.65771L0.166016 20.9336V61.1884L10.228 55.3751V26.7469L24.9628 18.2356Z" fill="white"/>
<path d="M69.897 20.9336V32.5671L59.828 38.3873L45.0932 46.8777V75.4017L35.0312 81.3193V41.0645L59.828 26.7469L69.897 20.9336Z" fill="white"/>
<path d="M69.897 20.9336V21.0309L59.828 26.8512V26.7469L35.0312 12.4153V0.802734L69.897 20.9336Z" fill="#EDEDED"/>
<path d="M69.8971 20.9336L59.8282 26.7469L57.5195 25.3979L69.8971 20.9336Z" fill="#EDEDED"/>
</svg>
